<mxfile host="app.diagrams.net" modified="2023-10-24T08:41:47.017Z" agent="Mozilla/5.0 (Windows NT 10.0; Win64; x64; rv:109.0) Gecko/20100101 Firefox/118.0" etag="fWi886bbpAjnOu4ZnQ8j" version="22.0.6" type="device">
  <diagram name="Page-1" id="eecCfWI7liOl1zeQRFLR">
    <mxGraphModel dx="3014" dy="1333" grid="1" gridSize="10" guides="1" tooltips="1" connect="1" arrows="1" fold="1" page="1" pageScale="1" pageWidth="827" pageHeight="1169" math="0" shadow="0">
      <root>
        <mxCell id="0" />
        <mxCell id="1" parent="0" />
        <mxCell id="BvcRLfXmAE_1p3T1sQ3R-21" value="" style="fontColor=#0066CC;verticalAlign=top;verticalLabelPosition=bottom;labelPosition=center;align=center;html=1;outlineConnect=0;fillColor=#CCCCCC;strokeColor=#6881B3;gradientColor=none;gradientDirection=north;strokeWidth=2;shape=mxgraph.networks.pc;" vertex="1" parent="1">
          <mxGeometry x="-240" y="820" width="100" height="70" as="geometry" />
        </mxCell>
        <mxCell id="BvcRLfXmAE_1p3T1sQ3R-22" value="" style="fontColor=#0066CC;verticalAlign=top;verticalLabelPosition=bottom;labelPosition=center;align=center;html=1;outlineConnect=0;fillColor=#CCCCCC;strokeColor=#6881B3;gradientColor=none;gradientDirection=north;strokeWidth=2;shape=mxgraph.networks.pc;" vertex="1" parent="1">
          <mxGeometry x="-90.00000000000001" y="860" width="100" height="70" as="geometry" />
        </mxCell>
        <mxCell id="BvcRLfXmAE_1p3T1sQ3R-23" value="" style="fontColor=#0066CC;verticalAlign=top;verticalLabelPosition=bottom;labelPosition=center;align=center;html=1;outlineConnect=0;fillColor=#CCCCCC;strokeColor=#6881B3;gradientColor=none;gradientDirection=north;strokeWidth=2;shape=mxgraph.networks.pc;" vertex="1" parent="1">
          <mxGeometry x="60" y="830" width="100" height="70" as="geometry" />
        </mxCell>
        <mxCell id="BvcRLfXmAE_1p3T1sQ3R-24" value="" style="fontColor=#0066CC;verticalAlign=top;verticalLabelPosition=bottom;labelPosition=center;align=center;html=1;outlineConnect=0;fillColor=#CCCCCC;strokeColor=#6881B3;gradientColor=none;gradientDirection=north;strokeWidth=2;shape=mxgraph.networks.printer;" vertex="1" parent="1">
          <mxGeometry x="-350" y="256.9" width="100" height="100" as="geometry" />
        </mxCell>
        <mxCell id="BvcRLfXmAE_1p3T1sQ3R-28" value="" style="verticalLabelPosition=bottom;sketch=0;aspect=fixed;html=1;verticalAlign=top;strokeColor=none;align=center;outlineConnect=0;shape=mxgraph.citrix.tablet_2;" vertex="1" parent="1">
          <mxGeometry x="-495" y="360" width="82" height="86" as="geometry" />
        </mxCell>
        <mxCell id="BvcRLfXmAE_1p3T1sQ3R-78" value="" style="image;points=[];aspect=fixed;html=1;align=center;shadow=0;dashed=0;image=img/lib/allied_telesis/switch/Modular_Switch_SBx8106.svg;" vertex="1" parent="1">
          <mxGeometry x="-45.8" y="270" width="85.8" height="73.8" as="geometry" />
        </mxCell>
        <mxCell id="BvcRLfXmAE_1p3T1sQ3R-85" value="" style="image;html=1;image=img/lib/clip_art/computers/Server_128x128.png" vertex="1" parent="1">
          <mxGeometry x="200" y="270" width="80" height="80" as="geometry" />
        </mxCell>
        <mxCell id="BvcRLfXmAE_1p3T1sQ3R-86" value="" style="image;html=1;image=img/lib/clip_art/networking/Router_128x128.png" vertex="1" parent="1">
          <mxGeometry x="-42.900000000000006" y="50" width="80" height="80" as="geometry" />
        </mxCell>
        <mxCell id="BvcRLfXmAE_1p3T1sQ3R-88" value="" style="endArrow=none;html=1;rounded=0;strokeWidth=8;" edge="1" parent="1" source="BvcRLfXmAE_1p3T1sQ3R-78" target="BvcRLfXmAE_1p3T1sQ3R-85">
          <mxGeometry width="50" height="50" relative="1" as="geometry">
            <mxPoint x="-320" y="370" as="sourcePoint" />
            <mxPoint x="-110" y="260" as="targetPoint" />
          </mxGeometry>
        </mxCell>
        <mxCell id="BvcRLfXmAE_1p3T1sQ3R-101" value="" style="shape=mxgraph.cisco.misc.access_point;html=1;pointerEvents=1;dashed=0;fillColor=#036897;strokeColor=#ffffff;strokeWidth=2;verticalLabelPosition=bottom;verticalAlign=top;align=center;outlineConnect=0;" vertex="1" parent="1">
          <mxGeometry x="-91.85000000000001" y="410" width="177.9" height="70" as="geometry" />
        </mxCell>
        <mxCell id="BvcRLfXmAE_1p3T1sQ3R-102" value="&lt;font style=&quot;font-size: 25px;&quot;&gt;Routeur&lt;/font&gt;" style="text;html=1;align=center;verticalAlign=middle;resizable=0;points=[];autosize=1;strokeColor=none;fillColor=none;" vertex="1" parent="1">
          <mxGeometry x="-60.000000000000014" y="20" width="110" height="40" as="geometry" />
        </mxCell>
        <mxCell id="BvcRLfXmAE_1p3T1sQ3R-103" value="&lt;font style=&quot;font-size: 25px;&quot;&gt;Serveur DHCP&lt;/font&gt;" style="text;html=1;align=center;verticalAlign=middle;resizable=0;points=[];autosize=1;strokeColor=none;fillColor=none;" vertex="1" parent="1">
          <mxGeometry x="190" y="230" width="190" height="40" as="geometry" />
        </mxCell>
        <mxCell id="BvcRLfXmAE_1p3T1sQ3R-104" value="&lt;font style=&quot;font-size: 25px;&quot;&gt;Switch&lt;/font&gt;" style="text;html=1;align=center;verticalAlign=middle;resizable=0;points=[];autosize=1;strokeColor=none;fillColor=none;" vertex="1" parent="1">
          <mxGeometry x="10" y="230" width="100" height="40" as="geometry" />
        </mxCell>
        <mxCell id="BvcRLfXmAE_1p3T1sQ3R-105" value="&lt;font style=&quot;font-size: 25px;&quot;&gt;Acess point&lt;/font&gt;" style="text;html=1;align=center;verticalAlign=middle;resizable=0;points=[];autosize=1;strokeColor=none;fillColor=none;" vertex="1" parent="1">
          <mxGeometry x="20" y="370" width="150" height="40" as="geometry" />
        </mxCell>
        <mxCell id="BvcRLfXmAE_1p3T1sQ3R-106" value="" style="endArrow=none;html=1;rounded=0;strokeWidth=8;" edge="1" parent="1" source="BvcRLfXmAE_1p3T1sQ3R-101" target="BvcRLfXmAE_1p3T1sQ3R-78">
          <mxGeometry width="50" height="50" relative="1" as="geometry">
            <mxPoint x="-130" y="500" as="sourcePoint" />
            <mxPoint x="-80" y="450" as="targetPoint" />
            <Array as="points" />
          </mxGeometry>
        </mxCell>
        <mxCell id="BvcRLfXmAE_1p3T1sQ3R-107" value="" style="endArrow=none;html=1;rounded=0;strokeWidth=8;" edge="1" parent="1" source="BvcRLfXmAE_1p3T1sQ3R-78" target="BvcRLfXmAE_1p3T1sQ3R-86">
          <mxGeometry width="50" height="50" relative="1" as="geometry">
            <mxPoint x="50" y="317" as="sourcePoint" />
            <mxPoint x="210" y="319" as="targetPoint" />
          </mxGeometry>
        </mxCell>
        <mxCell id="BvcRLfXmAE_1p3T1sQ3R-109" value="" style="endArrow=none;html=1;rounded=0;strokeWidth=8;" edge="1" parent="1" source="BvcRLfXmAE_1p3T1sQ3R-78" target="BvcRLfXmAE_1p3T1sQ3R-24">
          <mxGeometry width="50" height="50" relative="1" as="geometry">
            <mxPoint x="50" y="317" as="sourcePoint" />
            <mxPoint x="210" y="319" as="targetPoint" />
          </mxGeometry>
        </mxCell>
        <mxCell id="BvcRLfXmAE_1p3T1sQ3R-110" value="" style="image;points=[];aspect=fixed;html=1;align=center;shadow=0;dashed=0;image=img/lib/allied_telesis/computer_and_terminals/Smartphone.svg;rotation=0;" vertex="1" parent="1">
          <mxGeometry x="-470" y="450" width="47.76" height="104.2" as="geometry" />
        </mxCell>
        <mxCell id="BvcRLfXmAE_1p3T1sQ3R-113" value="" style="image;points=[];aspect=fixed;html=1;align=center;shadow=0;dashed=0;image=img/lib/allied_telesis/computer_and_terminals/Smartphone.svg;rotation=0;" vertex="1" parent="1">
          <mxGeometry x="-397.76" y="550" width="47.76" height="104.2" as="geometry" />
        </mxCell>
        <mxCell id="BvcRLfXmAE_1p3T1sQ3R-118" value="" style="endArrow=none;dashed=1;html=1;dashPattern=1 3;strokeWidth=8;rounded=0;entryX=0;entryY=0.5;entryDx=0;entryDy=0;entryPerimeter=0;" edge="1" parent="1" source="BvcRLfXmAE_1p3T1sQ3R-113" target="BvcRLfXmAE_1p3T1sQ3R-101">
          <mxGeometry width="50" height="50" relative="1" as="geometry">
            <mxPoint x="-200" y="630" as="sourcePoint" />
            <mxPoint x="-150" y="580" as="targetPoint" />
          </mxGeometry>
        </mxCell>
        <mxCell id="BvcRLfXmAE_1p3T1sQ3R-119" value="" style="endArrow=none;dashed=1;html=1;dashPattern=1 3;strokeWidth=8;rounded=0;entryX=0;entryY=0.5;entryDx=0;entryDy=0;entryPerimeter=0;" edge="1" parent="1" source="BvcRLfXmAE_1p3T1sQ3R-110" target="BvcRLfXmAE_1p3T1sQ3R-101">
          <mxGeometry width="50" height="50" relative="1" as="geometry">
            <mxPoint x="-340" y="574" as="sourcePoint" />
            <mxPoint x="-82" y="485" as="targetPoint" />
          </mxGeometry>
        </mxCell>
        <mxCell id="BvcRLfXmAE_1p3T1sQ3R-120" value="" style="endArrow=none;dashed=1;html=1;dashPattern=1 3;strokeWidth=8;rounded=0;entryX=0;entryY=0.5;entryDx=0;entryDy=0;entryPerimeter=0;" edge="1" parent="1" source="BvcRLfXmAE_1p3T1sQ3R-28" target="BvcRLfXmAE_1p3T1sQ3R-101">
          <mxGeometry width="50" height="50" relative="1" as="geometry">
            <mxPoint x="-330" y="584" as="sourcePoint" />
            <mxPoint x="-72" y="495" as="targetPoint" />
          </mxGeometry>
        </mxCell>
        <mxCell id="BvcRLfXmAE_1p3T1sQ3R-121" value="" style="fontColor=#0066CC;verticalAlign=top;verticalLabelPosition=bottom;labelPosition=center;align=center;html=1;outlineConnect=0;fillColor=#CCCCCC;strokeColor=#6881B3;gradientColor=none;gradientDirection=north;strokeWidth=2;shape=mxgraph.networks.pc;" vertex="1" parent="1">
          <mxGeometry x="200" y="770" width="114" height="80" as="geometry" />
        </mxCell>
        <mxCell id="BvcRLfXmAE_1p3T1sQ3R-122" value="" style="fontColor=#0066CC;verticalAlign=top;verticalLabelPosition=bottom;labelPosition=center;align=center;html=1;outlineConnect=0;fillColor=#CCCCCC;strokeColor=#6881B3;gradientColor=none;gradientDirection=north;strokeWidth=2;shape=mxgraph.networks.pc;" vertex="1" parent="1">
          <mxGeometry x="-380" y="720" width="112" height="80" as="geometry" />
        </mxCell>
        <mxCell id="BvcRLfXmAE_1p3T1sQ3R-123" value="" style="image;points=[];aspect=fixed;html=1;align=center;shadow=0;dashed=0;image=img/lib/allied_telesis/computer_and_terminals/Laptop.svg;" vertex="1" parent="1">
          <mxGeometry x="500" y="730" width="108.45" height="110" as="geometry" />
        </mxCell>
        <mxCell id="BvcRLfXmAE_1p3T1sQ3R-124" value="" style="image;points=[];aspect=fixed;html=1;align=center;shadow=0;dashed=0;image=img/lib/allied_telesis/computer_and_terminals/Laptop.svg;" vertex="1" parent="1">
          <mxGeometry x="550" y="590" width="108.45" height="110" as="geometry" />
        </mxCell>
        <mxCell id="BvcRLfXmAE_1p3T1sQ3R-125" value="" style="endArrow=none;dashed=1;html=1;dashPattern=1 3;strokeWidth=8;rounded=0;entryX=0.5;entryY=0.985;entryDx=0;entryDy=0;entryPerimeter=0;" edge="1" parent="1" source="BvcRLfXmAE_1p3T1sQ3R-122" target="BvcRLfXmAE_1p3T1sQ3R-101">
          <mxGeometry width="50" height="50" relative="1" as="geometry">
            <mxPoint x="-258" y="646.6" as="sourcePoint" />
            <mxPoint y="557.6" as="targetPoint" />
          </mxGeometry>
        </mxCell>
        <mxCell id="BvcRLfXmAE_1p3T1sQ3R-126" value="" style="image;points=[];aspect=fixed;html=1;align=center;shadow=0;dashed=0;image=img/lib/allied_telesis/computer_and_terminals/Laptop.svg;" vertex="1" parent="1">
          <mxGeometry x="560" y="440.00000000000006" width="108.45" height="110" as="geometry" />
        </mxCell>
        <mxCell id="BvcRLfXmAE_1p3T1sQ3R-127" value="" style="image;points=[];aspect=fixed;html=1;align=center;shadow=0;dashed=0;image=img/lib/allied_telesis/computer_and_terminals/Laptop.svg;" vertex="1" parent="1">
          <mxGeometry x="520" y="335" width="108.45" height="110" as="geometry" />
        </mxCell>
        <mxCell id="BvcRLfXmAE_1p3T1sQ3R-128" value="" style="endArrow=none;dashed=1;html=1;dashPattern=1 3;strokeWidth=8;rounded=0;entryX=0.5;entryY=0.985;entryDx=0;entryDy=0;entryPerimeter=0;" edge="1" parent="1" source="BvcRLfXmAE_1p3T1sQ3R-21" target="BvcRLfXmAE_1p3T1sQ3R-101">
          <mxGeometry width="50" height="50" relative="1" as="geometry">
            <mxPoint x="-310" y="604" as="sourcePoint" />
            <mxPoint x="-52" y="515" as="targetPoint" />
          </mxGeometry>
        </mxCell>
        <mxCell id="BvcRLfXmAE_1p3T1sQ3R-129" value="" style="endArrow=none;dashed=1;html=1;dashPattern=1 3;strokeWidth=8;rounded=0;entryX=0.5;entryY=0.985;entryDx=0;entryDy=0;entryPerimeter=0;" edge="1" parent="1" source="BvcRLfXmAE_1p3T1sQ3R-22" target="BvcRLfXmAE_1p3T1sQ3R-101">
          <mxGeometry width="50" height="50" relative="1" as="geometry">
            <mxPoint x="-300" y="614" as="sourcePoint" />
            <mxPoint x="-42" y="525" as="targetPoint" />
          </mxGeometry>
        </mxCell>
        <mxCell id="BvcRLfXmAE_1p3T1sQ3R-130" value="" style="endArrow=none;dashed=1;html=1;dashPattern=1 3;strokeWidth=8;rounded=0;" edge="1" parent="1" source="BvcRLfXmAE_1p3T1sQ3R-23" target="BvcRLfXmAE_1p3T1sQ3R-101">
          <mxGeometry width="50" height="50" relative="1" as="geometry">
            <mxPoint x="-290" y="624" as="sourcePoint" />
            <mxPoint x="-32" y="535" as="targetPoint" />
          </mxGeometry>
        </mxCell>
        <mxCell id="BvcRLfXmAE_1p3T1sQ3R-131" value="" style="endArrow=none;dashed=1;html=1;dashPattern=1 3;strokeWidth=8;rounded=0;" edge="1" parent="1" source="BvcRLfXmAE_1p3T1sQ3R-121" target="BvcRLfXmAE_1p3T1sQ3R-101">
          <mxGeometry width="50" height="50" relative="1" as="geometry">
            <mxPoint x="-280" y="634" as="sourcePoint" />
            <mxPoint x="-22" y="545" as="targetPoint" />
          </mxGeometry>
        </mxCell>
        <mxCell id="BvcRLfXmAE_1p3T1sQ3R-132" value="" style="endArrow=none;dashed=1;html=1;dashPattern=1 3;strokeWidth=8;rounded=0;entryX=1;entryY=0.5;entryDx=0;entryDy=0;entryPerimeter=0;" edge="1" parent="1" source="BvcRLfXmAE_1p3T1sQ3R-127" target="BvcRLfXmAE_1p3T1sQ3R-101">
          <mxGeometry width="50" height="50" relative="1" as="geometry">
            <mxPoint x="-270" y="644" as="sourcePoint" />
            <mxPoint x="-12" y="555" as="targetPoint" />
          </mxGeometry>
        </mxCell>
        <mxCell id="BvcRLfXmAE_1p3T1sQ3R-133" value="" style="endArrow=none;dashed=1;html=1;dashPattern=1 3;strokeWidth=8;rounded=0;entryX=1;entryY=0.5;entryDx=0;entryDy=0;entryPerimeter=0;" edge="1" parent="1" source="BvcRLfXmAE_1p3T1sQ3R-126" target="BvcRLfXmAE_1p3T1sQ3R-101">
          <mxGeometry width="50" height="50" relative="1" as="geometry">
            <mxPoint x="-260" y="654" as="sourcePoint" />
            <mxPoint x="-2" y="565" as="targetPoint" />
          </mxGeometry>
        </mxCell>
        <mxCell id="BvcRLfXmAE_1p3T1sQ3R-134" value="" style="endArrow=none;dashed=1;html=1;dashPattern=1 3;strokeWidth=8;rounded=0;entryX=1;entryY=0.5;entryDx=0;entryDy=0;entryPerimeter=0;" edge="1" parent="1" source="BvcRLfXmAE_1p3T1sQ3R-124" target="BvcRLfXmAE_1p3T1sQ3R-101">
          <mxGeometry width="50" height="50" relative="1" as="geometry">
            <mxPoint x="-250" y="664" as="sourcePoint" />
            <mxPoint x="8" y="575" as="targetPoint" />
          </mxGeometry>
        </mxCell>
        <mxCell id="BvcRLfXmAE_1p3T1sQ3R-135" value="" style="endArrow=none;dashed=1;html=1;dashPattern=1 3;strokeWidth=8;rounded=0;entryX=1;entryY=0.5;entryDx=0;entryDy=0;entryPerimeter=0;" edge="1" parent="1" source="BvcRLfXmAE_1p3T1sQ3R-123" target="BvcRLfXmAE_1p3T1sQ3R-101">
          <mxGeometry width="50" height="50" relative="1" as="geometry">
            <mxPoint x="-240" y="674" as="sourcePoint" />
            <mxPoint x="18" y="585" as="targetPoint" />
          </mxGeometry>
        </mxCell>
      </root>
    </mxGraphModel>
  </diagram>
</mxfile>
